<svg width="24" height="24" viewBox="0 0 24 24" fill="none" xmlns="http://www.w3.org/2000/svg">
<path d="M13.1668 8.49992L10.8335 8.49992L10.8335 6.16659L13.1668 6.16659M13.1668 17.8333L10.8335 17.8333L10.8335 10.8333L13.1668 10.8333M12.0002 0.333252C10.4681 0.333252 8.95099 0.635019 7.53552 1.22132C6.12006 1.80763 4.83393 2.66699 3.75058 3.75034C1.56266 5.93826 0.333496 8.90573 0.333496 11.9999C0.333496 15.0941 1.56266 18.0616 3.75058 20.2495C4.83393 21.3328 6.12006 22.1922 7.53552 22.7785C8.95099 23.3648 10.4681 23.6666 12.0002 23.6666C15.0944 23.6666 18.0618 22.4374 20.2497 20.2495C22.4377 18.0616 23.6668 15.0941 23.6668 11.9999C23.6668 10.4678 23.3651 8.95074 22.7788 7.53528C22.1925 6.11981 21.3331 4.83369 20.2497 3.75034C19.1664 2.66699 17.8803 1.80763 16.4648 1.22132C15.0493 0.635019 13.5323 0.333252 12.0002 0.333252Z" fill="white"/>
</svg>
