<svg width="30" height="30" viewBox="0 0 30 30" fill="none" xmlns="http://www.w3.org/2000/svg">
<circle cx="15" cy="15" r="15" fill="white"/>
<path d="M15.5298 20.0492C15.5298 19.5454 15.5298 19.0416 15.5298 18.5378C15.5298 18.3433 15.3561 18.1537 15.1521 18.1637C14.9482 18.1737 14.7744 18.3283 14.7744 18.5378C14.7744 19.0416 14.7744 19.5454 14.7744 20.0492C14.7744 20.2438 14.9482 20.4333 15.1521 20.4233C15.3561 20.4159 15.5298 20.2587 15.5298 20.0492Z" fill="black"/>
<path d="M15.5298 11.5075C15.5298 11.0137 15.5298 10.5199 15.5298 10.0285C15.5298 9.834 15.3561 9.64445 15.1521 9.65443C14.9482 9.66441 14.7744 9.81904 14.7744 10.0285C14.7744 10.5224 14.7744 11.0162 14.7744 11.5075C14.7744 11.7021 14.9482 11.8916 15.1521 11.8816C15.3561 11.8717 15.5298 11.717 15.5298 11.5075Z" fill="black"/>
<path d="M12.1413 16.9472C12.1519 17.858 12.7938 18.6534 13.6931 18.9125C13.9663 18.9921 14.2475 18.9998 14.5313 18.9998C14.8071 18.9998 15.0857 18.9998 15.3615 18.9998C15.6135 18.9998 15.8602 18.9998 16.1096 18.9587C16.5526 18.8869 16.9717 18.6739 17.2979 18.3788C18.0194 17.7271 18.1998 16.6855 17.7674 15.8362C17.5473 15.4051 17.1547 15.0408 16.7038 14.8381C16.3483 14.679 15.9769 14.6123 15.5844 14.6123C15.1228 14.6123 14.6533 14.638 14.1944 14.6072C14.1705 14.6046 14.144 14.6021 14.1201 14.6021C14.0565 14.5969 14.1785 14.6123 14.1175 14.6021C14.0644 14.5944 14.0114 14.5841 13.9583 14.5713C13.9106 14.561 13.8655 14.5482 13.8204 14.5328C13.7965 14.5251 13.7753 14.5174 13.7541 14.5097C13.7461 14.5071 13.6559 14.4712 13.7037 14.4917C13.7567 14.5148 13.6533 14.4686 13.6559 14.4686C13.6347 14.4584 13.6135 14.4481 13.5923 14.4379C13.5525 14.4173 13.51 14.3942 13.4729 14.3711C13.4331 14.3481 13.396 14.3224 13.3588 14.2967C13.4225 14.3404 13.2978 14.248 13.2793 14.23C13.2103 14.171 13.1493 14.1043 13.0909 14.0376C13.0803 14.0248 13.0485 13.9786 13.0909 14.0376C13.0777 14.0196 13.0644 14.0017 13.0511 13.9837C13.0193 13.9375 12.9901 13.8914 12.9609 13.8426C12.9397 13.8041 12.9185 13.7631 12.8999 13.7246C12.9344 13.7964 12.884 13.681 12.8761 13.6604C12.8416 13.5629 12.8177 13.4654 12.7991 13.3654C12.8124 13.4475 12.7965 13.3166 12.7938 13.2961C12.7912 13.2474 12.7912 13.1986 12.7912 13.1499C12.7938 13.0036 12.7965 12.9908 12.8336 12.8522C12.8469 12.8009 12.8654 12.7522 12.8814 12.7008C12.9052 12.6316 12.8946 12.6649 12.8867 12.6829C12.8973 12.6598 12.9079 12.6341 12.9212 12.611C12.945 12.5649 12.9716 12.5187 12.9981 12.4725C13.0166 12.4443 13.0352 12.416 13.0538 12.3904C13.0644 12.375 13.1068 12.3186 13.075 12.357C13.1413 12.2749 13.2182 12.198 13.2978 12.1313C13.2872 12.1389 13.3907 12.0568 13.3509 12.0851C13.319 12.1082 13.3854 12.0594 13.3933 12.0568C13.4437 12.0235 13.4968 11.9901 13.5498 11.9619C13.5976 11.9363 13.648 11.9106 13.6984 11.8901C13.6453 11.9132 13.7249 11.8798 13.7382 11.8747C13.7647 11.8644 13.7912 11.8567 13.8177 11.849C13.8708 11.8311 13.9265 11.8182 13.9822 11.8054C14.0087 11.8003 14.0379 11.7926 14.0671 11.7874C14.083 11.7849 14.1626 11.7746 14.1122 11.7797C14.3297 11.7541 14.5552 11.7695 14.7727 11.7695C15.0406 11.7695 15.3085 11.7695 15.5764 11.7695C15.6613 11.7695 15.7435 11.7695 15.8284 11.7746C15.8523 11.7772 15.8788 11.7797 15.9027 11.7823C15.8841 11.7797 15.8284 11.7695 15.9053 11.7849C15.9531 11.7951 16.0008 11.8028 16.0459 11.8157C16.091 11.8285 16.1388 11.8413 16.1838 11.8567C16.2051 11.8644 16.2289 11.8721 16.2502 11.8798C16.1706 11.849 16.2767 11.8926 16.2846 11.8952C16.3695 11.9363 16.4465 11.985 16.526 12.0338C16.587 12.0722 16.5419 12.044 16.5287 12.0338C16.5472 12.0466 16.5658 12.062 16.5817 12.0774C16.6242 12.1133 16.6666 12.1518 16.7064 12.1928C16.7382 12.2262 16.7674 12.2595 16.7966 12.2929C16.7462 12.2364 16.8231 12.3288 16.8364 12.3493C16.8629 12.3853 16.8868 12.4237 16.908 12.4622C16.9213 12.4879 16.9345 12.511 16.9478 12.5366C16.9637 12.5649 16.977 12.6033 16.9558 12.552C16.9902 12.6367 17.0168 12.7214 17.038 12.8112C17.0433 12.8394 17.0486 12.8676 17.0539 12.8958C17.0672 12.9549 17.0512 12.8368 17.0539 12.8958C17.0565 12.9472 17.0619 13.001 17.0619 13.0524C17.0645 13.2525 17.2422 13.4475 17.4597 13.4372C17.6746 13.427 17.8603 13.2679 17.8576 13.0524C17.847 12.1415 17.2051 11.3461 16.3059 11.087C16.0326 11.0075 15.7515 10.9998 15.4676 10.9998C15.1918 10.9998 14.9133 10.9998 14.6374 10.9998C14.3642 10.9998 14.0989 10.9998 13.831 11.0511C13.3323 11.146 12.8469 11.4205 12.5259 11.8003C11.8946 12.5469 11.8044 13.6322 12.4012 14.4276C12.8787 15.0639 13.6135 15.3846 14.4172 15.3846C14.8867 15.3846 15.3642 15.3564 15.831 15.3898C15.9822 15.4 16.2608 15.4796 16.3987 15.5488C16.4544 15.577 16.5075 15.6078 16.5579 15.6386C16.5817 15.654 16.603 15.6694 16.6268 15.6822C16.6321 15.6848 16.6852 15.7259 16.6427 15.6951C16.7382 15.7695 16.8231 15.8542 16.9027 15.944C16.908 15.9491 16.9478 16.0004 16.916 15.9593C16.9319 15.9799 16.9478 16.003 16.9637 16.0235C16.9929 16.0671 17.0221 16.1107 17.0486 16.1569C17.1202 16.2826 17.1229 16.2929 17.1627 16.4289C17.1786 16.4802 17.1892 16.5315 17.1998 16.5854C17.2024 16.5931 17.2131 16.6598 17.2051 16.6033C17.2077 16.629 17.2104 16.6572 17.2131 16.6855C17.221 16.7958 17.2184 16.9087 17.2051 17.019C17.2157 16.9369 17.1945 17.0652 17.1892 17.0857C17.1786 17.1293 17.168 17.1729 17.1547 17.2166C17.1414 17.2602 17.1255 17.3012 17.1096 17.3423C17.1016 17.3551 17.0831 17.4116 17.1096 17.3423C17.0937 17.3731 17.0804 17.4013 17.0645 17.4321C17.0221 17.5116 16.9717 17.5835 16.9186 17.6579C16.9637 17.5963 16.8894 17.6912 16.8735 17.7092C16.8364 17.7502 16.7966 17.7913 16.7542 17.8298C16.7197 17.8606 16.6852 17.8888 16.6507 17.917C16.5923 17.9632 16.6374 17.9273 16.648 17.9196C16.6295 17.9324 16.6109 17.9452 16.5923 17.9581C16.5048 18.0145 16.4146 18.0633 16.3191 18.1094C16.2528 18.1428 16.3006 18.1171 16.3165 18.112C16.2953 18.1197 16.2714 18.13 16.2502 18.1377C16.1998 18.1556 16.1494 18.171 16.0963 18.1838C16.0486 18.1967 16.0035 18.2069 15.9557 18.2146C15.9318 18.2198 15.908 18.2223 15.8841 18.2275C15.839 18.2352 15.9398 18.2249 15.8629 18.23C15.3881 18.2557 14.9079 18.2377 14.4305 18.2377C14.3456 18.2377 14.2634 18.2377 14.1785 18.2326C14.1546 18.23 14.1281 18.2275 14.1042 18.2249C14.1228 18.2275 14.1785 18.2377 14.1016 18.2223C14.0538 18.2121 14.0061 18.2044 13.961 18.1915C13.9159 18.1787 13.8681 18.1659 13.823 18.1505C13.8018 18.1428 13.7779 18.1351 13.7567 18.1274C13.8363 18.1582 13.7302 18.1146 13.7222 18.112C13.6374 18.071 13.5604 18.0222 13.4809 17.9735C13.4198 17.935 13.4649 17.9632 13.4782 17.9735C13.4596 17.9606 13.4411 17.9452 13.4251 17.9298C13.3827 17.8939 13.3403 17.8554 13.3005 17.8144C13.2686 17.781 13.2395 17.7477 13.2103 17.7143C13.2607 17.7708 13.1838 17.6784 13.1705 17.6579C13.144 17.6219 13.1201 17.5835 13.0989 17.545C13.0856 17.5193 13.0724 17.4962 13.0591 17.4706C13.0432 17.4423 13.0299 17.4039 13.0511 17.4552C13.0166 17.3705 12.9901 17.2858 12.9689 17.196C12.9636 17.1678 12.9583 17.1396 12.953 17.1114C12.9556 17.1704 12.9397 17.0524 12.953 17.1114C12.9503 17.0601 12.945 17.0062 12.945 16.9549C12.9424 16.7547 12.7646 16.5597 12.5471 16.57C12.327 16.5726 12.1413 16.7316 12.1413 16.9472Z" fill="black"/>
<path d="M7.4706 14.6871C7.5341 14.6871 7.5976 14.6649 7.64773 14.6173L9.67633 12.6915C9.77325 12.5994 9.77325 12.4472 9.67633 12.3551C9.57942 12.2631 9.419 12.2631 9.32208 12.3551L7.4706 14.1129L5.61912 12.3551C5.5222 12.2631 5.36178 12.2631 5.26486 12.3551C5.16794 12.4472 5.16794 12.5994 5.26486 12.6915L7.29347 14.6173C7.3436 14.6649 7.4071 14.6871 7.4706 14.6871Z" fill="black"/>
<path d="M7.47005 14.6328C7.60707 14.6328 7.7207 14.525 7.7207 14.3949L7.7207 9.0551C7.7207 8.92501 7.60707 8.81714 7.47005 8.81714C7.33303 8.81714 7.2194 8.92501 7.2194 9.0551L7.2194 14.3949C7.2194 14.525 7.33303 14.6328 7.47005 14.6328Z" fill="black"/>
<path d="M22.1748 16.9998C22.235 16.9998 22.2953 17.022 22.3429 17.0696L24.2684 18.9951C24.3604 19.0871 24.3604 19.2394 24.2684 19.3314C24.1764 19.4234 24.0241 19.4234 23.9322 19.3314L22.1748 17.574L20.4174 19.3314C20.3254 19.4234 20.1731 19.4234 20.0811 19.3314C19.9891 19.2394 19.9891 19.0871 20.0811 18.9951L22.0066 17.0696C22.0542 17.022 22.1145 16.9998 22.1748 16.9998Z" fill="black"/>
<path d="M22.1742 17.054C22.3043 17.054 22.4121 17.1619 22.4121 17.2919L22.4121 22.6307C22.4121 22.7608 22.3043 22.8687 22.1742 22.8687C22.0441 22.8687 21.9363 22.7608 21.9363 22.6307L21.9363 17.2919C21.9363 17.1619 22.0441 17.054 22.1742 17.054Z" fill="black"/>
</svg>
