<svg width="84" height="76" viewBox="0 0 84 76" fill="none" xmlns="http://www.w3.org/2000/svg">
<path d="M11.426 5.00856C11.0861 5.1609 10.7541 5.24294 10.3869 5.27418C9.56655 5.3484 8.70716 5.27418 7.87906 5.28199L4.34386 5.2898C3.62902 5.2898 2.83606 5.3484 2.12906 5.21168C1.43765 5.07106 0.828261 4.69215 0.441561 4.09838C0.0470305 3.49291 -0.0974995 2.75858 0.0665605 2.05148C0.218901 1.3796 0.61344 0.785878 1.19936 0.418678C1.53139 0.211648 1.89858 0.0905576 2.28526 0.0436776C2.71104 -0.0110094 3.16026 0.0163348 3.59386 0.0163348L5.78526 0.0241463L8.58606 0.0163348C9.29309 0.0163348 10.0783 -0.0578842 10.7736 0.110085C11.4064 0.262425 11.922 0.750705 12.2541 1.28978C13.1681 1.38353 14.008 1.61009 14.7932 2.09837C14.9064 2.17259 15.0197 2.25072 15.133 2.33276C15.2463 2.41088 15.3518 2.50073 15.4533 2.58667C15.5588 2.6726 15.6603 2.76635 15.7619 2.8601C15.8635 2.95385 15.9533 3.05152 16.0471 3.15308C16.1408 3.25464 16.2268 3.36011 16.3088 3.46558C16.3947 3.57105 16.4767 3.68432 16.5471 3.7976C16.6213 3.91088 16.6955 4.02417 16.7658 4.14527C16.8322 4.26636 16.8986 4.38354 16.9572 4.50464C17.3908 5.39917 17.5314 6.41874 17.7307 7.37964C17.9455 8.43434 18.1525 9.48514 18.3557 10.5476C18.4963 11.2742 18.6096 12.0007 18.7775 12.7195H60.1055L73.3595 12.7274C74.6329 12.7274 75.9142 12.7625 77.1876 12.7547C78.1134 12.7469 79.0665 12.6961 79.9962 12.7625C80.6212 12.8094 81.211 12.9969 81.7306 13.3485C82.672 13.9813 83.0978 14.8837 83.3087 15.9618V16.5477C83.1212 17.1883 83.0431 17.8954 82.9142 18.5555C82.633 20.0477 82.3595 21.5438 82.1056 23.0438L80.3439 32.8055C80.1955 33.6336 80.0119 34.4461 79.8713 35.2703L78.5432 42.7117C78.3557 43.7312 78.2502 44.7976 78.0041 45.7976C77.9103 46.1765 77.7658 46.5124 77.5393 46.8328C77.133 47.407 76.5276 47.868 75.8479 48.0516C75.2541 48.2196 74.6213 48.2703 74.0081 48.3602C73.0081 48.5086 72.0081 48.6453 71.0003 48.7821L62.7464 49.9344L38.1564 53.3016L32.8439 54.0359C31.1759 54.2547 29.5041 54.45 27.8517 54.7274C27.1993 55.2938 26.59 55.8993 25.965 56.493C25.0431 57.3601 24.1252 58.2274 23.2502 59.1453C25.3088 59.0984 27.3752 59.1179 29.4377 59.1179L36.883 59.1101L58.711 59.1179C61.6993 59.1374 64.6837 59.1257 67.6719 59.071C69.0977 59.0437 70.5235 59.032 71.9531 59.0359C72.6796 59.0359 73.4179 58.9968 74.1406 59.0476C74.6757 59.0828 75.1875 59.2273 75.5937 59.5945C76.0077 59.9695 76.2265 60.5007 76.2343 61.0554V61.1569C76.2343 61.1921 76.2265 61.2233 76.2265 61.2585C76.2265 61.2937 76.2187 61.3249 76.2147 61.3601C76.2069 61.3952 76.2069 61.4265 76.203 61.4616C76.1952 61.4968 76.1913 61.528 76.1835 61.5554C76.1757 61.5905 76.1718 61.6218 76.1562 61.6491C76.1483 61.6843 76.1366 61.7077 76.121 61.7429C76.1093 61.778 76.1015 61.8015 76.0858 61.8366C76.0741 61.8718 76.0585 61.8952 76.0468 61.9226C76.0351 61.9499 76.0194 61.9811 75.9999 62.0085C75.9882 62.0358 75.9647 62.0671 75.953 62.0944C75.9413 62.1218 75.9179 62.1491 75.8983 62.1804C75.8788 62.2077 75.8632 62.2351 75.8437 62.2585C75.8241 62.2858 75.8046 62.3132 75.7851 62.3366C75.7655 62.364 75.746 62.3913 75.7187 62.4108C75.6991 62.4382 75.6718 62.4577 75.6522 62.4851C75.414 62.7311 75.1054 62.8991 74.7733 62.9772C74.1054 63.1452 73.3475 63.0905 72.66 63.0905L69.9217 63.1101C70.8866 63.6374 71.7537 64.4382 72.367 65.3445C73.3084 66.739 73.699 68.657 73.367 70.3054C73.3553 70.36 73.3475 70.4108 73.3319 70.4655C73.3202 70.5202 73.3045 70.571 73.2928 70.6257C73.2811 70.6804 73.2655 70.7311 73.2459 70.7858C73.2342 70.8405 73.2108 70.8913 73.1991 70.946C73.1873 71.0007 73.1639 71.0515 73.1444 71.1062C73.1248 71.1608 73.1092 71.2116 73.0897 71.2663C73.0702 71.321 73.0506 71.3718 73.0311 71.4187C73.0116 71.4733 72.992 71.5241 72.9725 71.571C72.953 71.6257 72.9256 71.6726 72.9061 71.7233C72.8866 71.778 72.8592 71.8249 72.8319 71.8757C72.8045 71.9304 72.785 71.9772 72.7577 72.0241C72.7303 72.071 72.703 72.1257 72.6795 72.1726C72.6522 72.2194 72.6248 72.2741 72.6014 72.321C72.5741 72.3679 72.5467 72.4147 72.5155 72.4694C72.4881 72.5163 72.4569 72.5632 72.4295 72.6101C72.4022 72.6569 72.3709 72.7038 72.3358 72.7507C72.3006 72.7975 72.2772 72.8444 72.242 72.8913C72.2069 72.9382 72.1756 72.985 72.1405 73.0241C72.1053 73.071 72.0741 73.11 72.0389 73.1569C72.0038 73.2038 71.9725 73.2429 71.9334 73.2897C71.8983 73.3288 71.8592 73.3757 71.828 73.4147C71.7928 73.4538 71.7538 73.5007 71.7147 73.5397C71.6756 73.5788 71.6405 73.6179 71.6014 73.6608C71.5624 73.6999 71.5233 73.7389 71.4803 73.7819C71.4413 73.821 71.4022 73.86 71.3592 73.8952C71.3202 73.9342 71.2811 73.9694 71.2381 74.0085C71.1991 74.0475 71.16 74.0827 71.1131 74.1217C71.0741 74.1569 71.0272 74.196 70.9881 74.2272C70.9491 74.2624 70.9022 74.3014 70.8553 74.3327C70.8085 74.3678 70.7694 74.3991 70.7225 74.4342C70.6757 74.4694 70.6366 74.5006 70.5897 74.5358C70.5428 74.571 70.496 74.6022 70.4491 74.6296C70.4022 74.6647 70.3553 74.6881 70.3007 74.7233C70.2538 74.7585 70.1991 74.7819 70.1522 74.8092C70.1053 74.8366 70.0507 74.8678 70.0038 74.8952C69.9569 74.9225 69.9022 74.9499 69.8514 74.9733C69.7968 75.0006 69.7499 75.028 69.6991 75.0514C69.6444 75.0788 69.5975 75.1061 69.5468 75.1256C69.4921 75.153 69.4413 75.1725 69.3866 75.1999C69.3319 75.2194 69.2811 75.2467 69.2264 75.2663C69.1718 75.2858 69.121 75.3053 69.0663 75.3249C69.0116 75.3444 68.9608 75.3639 68.9061 75.3835C68.8514 75.403 68.8006 75.4225 68.746 75.4381C68.6913 75.4577 68.6405 75.4733 68.578 75.4928C68.5233 75.5046 68.4647 75.528 68.41 75.5397C68.3553 75.5514 68.2967 75.5671 68.2421 75.5788C68.1874 75.5905 68.1288 75.6061 68.0741 75.6178C68.0194 75.6296 67.9608 75.6452 67.9061 75.653C67.8514 75.6647 67.7928 75.6725 67.7381 75.6881C67.6834 75.696 67.6249 75.7077 67.5663 75.7155C67.5077 75.7233 67.453 75.7272 67.3944 75.735C67.3358 75.7428 67.2811 75.7467 67.2225 75.7546C67.1639 75.7624 67.1092 75.7624 67.0506 75.7663C66.992 75.7741 66.9374 75.7741 66.8788 75.7741C66.8202 75.7741 66.7655 75.7819 66.7069 75.7819H66.535C66.4764 75.7819 66.4217 75.7819 66.3631 75.7741C66.3045 75.7741 66.2499 75.7663 66.1913 75.7663C66.1327 75.7585 66.078 75.7585 66.0194 75.7546C65.9608 75.7467 65.9061 75.7428 65.8475 75.7428C65.7889 75.735 65.7342 75.7311 65.6756 75.7233C65.617 75.7155 65.5624 75.7116 65.5038 75.696C65.4452 75.6881 65.3905 75.6764 65.3358 75.6686C65.2811 75.6569 65.2225 75.6491 65.1678 75.6335C65.1131 75.6217 65.0545 75.6061 64.9998 75.5944C64.9452 75.5827 64.8944 75.5671 64.8319 75.5553C64.7772 75.5436 64.7264 75.5202 64.6717 75.5085C64.617 75.4967 64.5662 75.4733 64.5116 75.4538C64.4569 75.4342 64.4061 75.4186 64.3514 75.3991C64.2967 75.3796 64.2459 75.36 64.1912 75.3405C64.1366 75.321 64.0858 75.3014 64.0311 75.2819C63.9764 75.2624 63.9256 75.2428 63.8787 75.2155C63.8241 75.196 63.7772 75.1686 63.7264 75.1491C63.6717 75.1217 63.6248 75.1022 63.5741 75.0749C63.5194 75.0475 63.4725 75.0202 63.4217 74.9967C63.3748 74.9694 63.3202 74.9421 63.2733 74.9186C63.2264 74.8913 63.1717 74.8639 63.1248 74.8327C63.078 74.8053 63.0233 74.7741 62.9764 74.7467C62.9295 74.7194 62.8827 74.6881 62.8358 74.653C62.7889 74.6178 62.742 74.5944 62.6952 74.5592C62.6483 74.5241 62.6014 74.4928 62.5545 74.4577C62.5077 74.4225 62.4608 74.3913 62.4217 74.3561C62.3749 74.321 62.3358 74.2897 62.2889 74.2507C62.242 74.2155 62.203 74.1764 62.1561 74.1452C62.117 74.11 62.0702 74.071 62.0311 74.0319C61.992 73.9928 61.9452 73.9577 61.9061 73.9186C61.867 73.8796 61.828 73.8405 61.785 73.7975C61.746 73.7585 61.7069 73.7194 61.6639 73.6764C61.6249 73.6374 61.5858 73.5983 61.5506 73.5514C61.5116 73.5124 61.4764 73.4655 61.4374 73.4264C61.3983 73.3874 61.3632 73.3405 61.3319 73.3014C61.2967 73.2546 61.2577 73.2155 61.2264 73.1686C61.1913 73.1218 61.16 73.0827 61.121 73.0358C61.0858 72.989 61.0546 72.9421 61.0194 72.8952C60.9842 72.8483 60.953 72.8015 60.9178 72.7546C60.8827 72.7077 60.8592 72.6608 60.8241 72.614C59.8788 71.1413 59.5975 69.1687 59.9764 67.4656C60.4022 65.5867 61.5506 64.1453 63.1561 63.1258C59.4295 63.1648 55.703 63.1726 51.9761 63.1453L31.9681 63.1805C32.89 63.7937 33.6673 64.493 34.2611 65.4422C34.2885 65.489 34.3158 65.5359 34.3471 65.5828C34.3744 65.6296 34.4018 65.6765 34.4252 65.7312C34.4525 65.7781 34.4799 65.8328 34.5033 65.8797C34.5307 65.9265 34.5502 65.9812 34.5775 66.0281C34.6049 66.075 34.6244 66.1296 34.6439 66.1765C34.6635 66.2312 34.6908 66.2781 34.7104 66.3289C34.7299 66.3836 34.7494 66.4304 34.7689 66.4812C34.7885 66.5359 34.808 66.5828 34.8275 66.6336C34.8471 66.6882 34.8666 66.739 34.8822 66.7859C34.9018 66.8406 34.9174 66.8914 34.9369 66.9461C34.9486 67.0007 34.9721 67.0515 34.9838 67.1062C34.9955 67.1609 35.0111 67.2117 35.0229 67.2664C35.0346 67.3211 35.0502 67.3718 35.0619 67.4265C35.0736 67.4812 35.0893 67.532 35.0971 67.5867C35.1088 67.6414 35.1166 67.6922 35.1322 67.7468C35.14 67.8015 35.1518 67.8523 35.1596 67.907C35.1674 67.9617 35.1713 68.0125 35.1791 68.0672C35.1869 68.1219 35.1908 68.1726 35.1986 68.2351C35.2064 68.2898 35.2104 68.3406 35.2104 68.4031C35.2182 68.4578 35.2182 68.5086 35.2221 68.5711C35.2221 68.6258 35.2299 68.6766 35.2299 68.7391V68.907V69.075C35.2299 69.1297 35.2299 69.1805 35.2221 69.243C35.2221 69.2976 35.2143 69.3484 35.2143 69.4109C35.2064 69.4656 35.2064 69.5164 35.2025 69.5789C35.1947 69.6336 35.1908 69.6844 35.183 69.7469C35.1752 69.8016 35.1713 69.8523 35.1635 69.907C35.1557 69.9617 35.1439 70.0125 35.1361 70.0672C35.1283 70.1219 35.1166 70.1727 35.101 70.2273C35.0893 70.282 35.0814 70.3328 35.0658 70.3875C35.0541 70.4422 35.0385 70.493 35.0268 70.5477C34.5853 72.3875 33.4487 73.8954 31.8354 74.8797C30.2495 75.8445 28.4096 76.1063 26.6088 75.6531C26.5541 75.6414 26.5033 75.6258 26.4486 75.6141C26.3939 75.6023 26.3431 75.5867 26.2884 75.5672C26.2337 75.5555 26.183 75.532 26.1283 75.5203C26.0736 75.5008 26.0228 75.4851 25.9681 75.4656C25.9134 75.4461 25.8626 75.4266 25.8158 75.407C25.7611 75.3875 25.7142 75.368 25.6634 75.3484C25.6087 75.3289 25.5619 75.3094 25.5111 75.282C25.4564 75.2625 25.4095 75.2351 25.3588 75.2156C25.3119 75.1883 25.2572 75.1687 25.2103 75.1414C25.1634 75.1141 25.1088 75.0867 25.0619 75.0672C25.015 75.0398 24.9603 75.0125 24.9134 74.9891C24.8666 74.9617 24.8197 74.9344 24.7728 74.9109C24.7259 74.8836 24.6791 74.8523 24.6322 74.825C24.5853 74.7976 24.5384 74.7664 24.4916 74.7312C24.4447 74.6961 24.3978 74.6726 24.3588 74.6375C24.3119 74.6023 24.2728 74.5711 24.226 74.5359C24.1791 74.5008 24.14 74.4695 24.0931 74.4344C24.0463 74.3992 24.0072 74.368 23.9681 74.3289C23.9291 74.2937 23.8822 74.2547 23.8431 74.2234C23.8041 74.1883 23.765 74.1492 23.7181 74.118C23.6791 74.0789 23.64 74.0437 23.5971 74.0047C23.558 73.9656 23.5189 73.9266 23.476 73.8914C23.4369 73.8523 23.3978 73.8133 23.3627 73.7703C23.3236 73.7312 23.2885 73.6922 23.2494 73.6492C23.2103 73.6102 23.1752 73.5711 23.1439 73.5242C23.1088 73.4852 23.0697 73.4383 23.0385 73.3992C23.0033 73.3602 22.9721 73.3133 22.9369 73.2742C22.9017 73.2273 22.8705 73.1883 22.8353 73.1414C22.8002 73.0945 22.7689 73.0555 22.7416 73.0086C22.7064 72.9617 22.683 72.9148 22.6478 72.868C22.6127 72.8211 22.5893 72.7742 22.5619 72.7274C22.5346 72.6805 22.5033 72.6336 22.476 72.5867C21.5775 71.0672 21.2572 69.1336 21.7104 67.4148C21.7221 67.3601 21.7377 67.3094 21.7572 67.2469C21.7689 67.1922 21.7924 67.1414 21.8041 67.0867C21.8158 67.032 21.8393 66.9812 21.8588 66.9265C21.8783 66.8719 21.8939 66.8211 21.9135 66.7664C21.933 66.7117 21.9525 66.6609 21.9721 66.6062C21.9916 66.5515 22.0111 66.5008 22.0385 66.4461C22.058 66.3914 22.0853 66.3406 22.1049 66.2937C22.1244 66.239 22.1518 66.1922 22.1791 66.1414C22.2064 66.0867 22.226 66.0398 22.2533 65.989C22.2807 65.9344 22.308 65.8875 22.3314 65.8367C22.3588 65.7898 22.3861 65.7351 22.4096 65.6883C22.4369 65.6414 22.4643 65.5867 22.4955 65.5398C22.5228 65.493 22.5541 65.4461 22.5814 65.3914C22.6166 65.3445 22.64 65.2976 22.6752 65.2508C22.7104 65.2039 22.7416 65.157 22.7689 65.1101C22.8041 65.0633 22.8353 65.0164 22.8705 64.9695C22.9057 64.9227 22.9369 64.8836 22.9721 64.8367C23.0072 64.7898 23.0463 64.7508 23.0775 64.7039C23.1127 64.657 23.1518 64.618 23.183 64.5789C23.2221 64.5398 23.2572 64.493 23.2963 64.4539C23.3353 64.4148 23.3744 64.3758 23.4096 64.3289C23.4486 64.2898 23.4877 64.2508 23.5307 64.2078L23.6517 64.0867C23.6908 64.0477 23.7299 64.0086 23.7767 63.9734C23.8158 63.9344 23.8627 63.8992 23.9017 63.8602C23.9408 63.825 23.9877 63.7859 24.0346 63.7547C24.0814 63.7195 24.1205 63.6805 24.1674 63.6492C24.2142 63.6141 24.2533 63.5828 24.3002 63.5477C24.347 63.5125 24.3939 63.4813 24.4408 63.4461C24.4877 63.4109 24.5345 63.3797 24.5814 63.3524C24.6283 63.3172 24.6752 63.2938 24.722 63.2586C24.7689 63.2313 24.8158 63.2 24.8705 63.1727C23.9174 63.1531 22.9447 63.2391 21.9955 63.1609C21.9369 63.1531 21.8744 63.1492 21.8236 63.1414C21.765 63.1336 21.7025 63.1219 21.6517 63.1141C21.5931 63.1024 21.5384 63.0945 21.4798 63.0789C21.4212 63.0672 21.3666 63.0516 21.308 63.032C21.2494 63.0203 21.1947 62.9969 21.14 62.9774C21.0853 62.9578 21.0267 62.9383 20.972 62.9188C20.9173 62.8992 20.8666 62.8719 20.8119 62.8524C20.7572 62.825 20.7064 62.7977 20.6517 62.7742C20.597 62.7469 20.5462 62.7195 20.4994 62.6883C20.4525 62.6531 20.3978 62.6297 20.347 62.5945C20.3001 62.5594 20.2455 62.5281 20.1986 62.493C20.1517 62.4578 20.1048 62.4188 20.058 62.3875C20.0111 62.3484 19.9642 62.3133 19.9252 62.2742C19.8783 62.2352 19.8392 62.1961 19.8002 62.1531L19.6752 62.0281C19.6361 61.9891 19.597 61.9422 19.5541 61.8953C18.9877 61.2156 18.7142 60.2469 18.8002 59.368C18.808 59.2938 18.8119 59.2274 18.8275 59.1532C18.8392 59.079 18.8548 59.0126 18.8666 58.9462C18.8783 58.8798 18.9017 58.8055 18.9212 58.7391C18.9408 58.6727 18.9603 58.6063 18.9877 58.5321C19.0072 58.4657 19.0345 58.3993 19.0619 58.3329C19.0892 58.2665 19.1166 58.2001 19.1478 58.1415C19.183 58.0751 19.2142 58.0165 19.2494 57.954C19.2845 57.8954 19.3236 57.8329 19.3548 57.7743C19.8275 57.0477 20.6009 56.4657 21.2337 55.8798C21.8939 55.2743 22.5345 54.6532 23.2259 54.0712C22.9642 53.6923 22.6908 53.2977 22.5658 52.8524C22.3119 51.9657 22.1986 51.0047 22.0072 50.0985C21.3587 47.0985 20.8197 44.079 20.226 41.0633L14.9877 13.9893L14.0736 9.17678C13.9252 8.40334 13.7807 7.09868 13.4252 6.43068C13.0189 5.62599 12.2112 5.25856 11.426 5.00856Z" fill="white"/>
<path d="M51.8457 21.5254V24.4062H50.3223V21.5254H51.8457ZM51.6602 37.4727V40.0996H50.1367V37.4727H51.6602ZM52.7344 34.2695C52.7344 33.8984 52.666 33.5827 52.5293 33.3223C52.3991 33.0618 52.1842 32.8307 51.8848 32.6289C51.5918 32.4271 51.1947 32.2318 50.6934 32.043C49.847 31.7174 49.1016 31.3724 48.457 31.0078C47.819 30.6367 47.321 30.1777 46.9629 29.6309C46.6048 29.0775 46.4258 28.3776 46.4258 27.5312C46.4258 26.724 46.6178 26.0241 47.002 25.4316C47.3861 24.8392 47.9167 24.3835 48.5938 24.0645C49.2773 23.7389 50.0716 23.5762 50.9766 23.5762C51.6667 23.5762 52.2917 23.6803 52.8516 23.8887C53.4115 24.0905 53.8932 24.39 54.2969 24.7871C54.7005 25.1777 55.0098 25.6562 55.2246 26.2227C55.4395 26.7891 55.5469 27.4368 55.5469 28.166H52.7441C52.7441 27.7754 52.7018 27.4303 52.6172 27.1309C52.5326 26.8314 52.4089 26.5807 52.2461 26.3789C52.0898 26.1771 51.901 26.0273 51.6797 25.9297C51.4583 25.8255 51.2142 25.7734 50.9473 25.7734C50.5501 25.7734 50.2246 25.8516 49.9707 26.0078C49.7168 26.1641 49.5312 26.3757 49.4141 26.6426C49.3034 26.903 49.248 27.2025 49.248 27.541C49.248 27.873 49.3066 28.1628 49.4238 28.4102C49.5475 28.6576 49.7591 28.8854 50.0586 29.0938C50.3581 29.2956 50.7682 29.5039 51.2891 29.7188C52.1354 30.0443 52.8776 30.3958 53.5156 30.7734C54.1536 31.151 54.6517 31.6133 55.0098 32.1602C55.3678 32.707 55.5469 33.4036 55.5469 34.25C55.5469 35.0898 55.3516 35.806 54.9609 36.3984C54.5703 36.9844 54.0234 37.4336 53.3203 37.7461C52.6172 38.0521 51.8034 38.2051 50.8789 38.2051C50.2799 38.2051 49.6842 38.127 49.0918 37.9707C48.4993 37.8079 47.9622 37.5475 47.4805 37.1895C46.9987 36.8314 46.6146 36.3561 46.3281 35.7637C46.0417 35.1647 45.8984 34.429 45.8984 33.5566H48.7109C48.7109 34.0319 48.7728 34.429 48.8965 34.748C49.0202 35.0605 49.1829 35.3112 49.3848 35.5C49.5931 35.6823 49.8275 35.8125 50.0879 35.8906C50.3483 35.9688 50.612 36.0078 50.8789 36.0078C51.2956 36.0078 51.6374 35.9329 51.9043 35.7832C52.1777 35.6335 52.3828 35.4284 52.5195 35.168C52.6628 34.901 52.7344 34.6016 52.7344 34.2695Z" fill="black"/>
</svg>
