<svg width="26" height="18" viewBox="0 0 26 18" fill="none" xmlns="http://www.w3.org/2000/svg">
<path d="M0.5 16.5062C0.5 17.1937 1.0575 17.75 1.74375 17.75H11.7563C12.0861 17.75 12.4025 17.619 12.6357 17.3857C12.869 17.1525 13 16.8361 13 16.5062C13 16.1764 12.869 15.86 12.6357 15.6268C12.4025 15.3935 12.0861 15.2625 11.7563 15.2625H1.74375C1.05625 15.2625 0.5 15.8187 0.5 16.5062ZM0.5 9C0.5 9.6875 1.0575 10.2437 1.74375 10.2437H24.2563C24.5861 10.2437 24.9025 10.1127 25.1357 9.87946C25.369 9.64622 25.5 9.32986 25.5 9C25.5 8.67014 25.369 8.35378 25.1357 8.12054C24.9025 7.88729 24.5861 7.75625 24.2563 7.75625H1.74375C1.05625 7.75625 0.5 8.31375 0.5 9ZM1.74375 2.7375C1.41389 2.7375 1.09754 2.60646 0.864286 2.37321C0.631039 2.13997 0.5 1.82361 0.5 1.49375C0.5 1.16389 0.631039 0.847534 0.864286 0.614286C1.09754 0.381037 1.41389 0.25 1.74375 0.25H16.7563C16.9196 0.25 17.0813 0.282171 17.2322 0.344675C17.3831 0.407179 17.5202 0.498793 17.6357 0.614286C17.7512 0.729779 17.8428 0.866889 17.9053 1.01779C17.9678 1.16869 18 1.33042 18 1.49375C18 1.65708 17.9678 1.81881 17.9053 1.96971C17.8428 2.12061 17.7512 2.25772 17.6357 2.37321C17.5202 2.48871 17.3831 2.58032 17.2322 2.64282C17.0813 2.70533 16.9196 2.7375 16.7563 2.7375H1.74375Z" fill="white"/>
</svg>
