<svg width="24" height="24" viewBox="0 0 24 24" fill="none" xmlns="http://www.w3.org/2000/svg">
<mask id="path-1-inside-1_90_1861" fill="white">
<path d="M9.46487 0H1.90358C1.39893 0.000666684 0.915132 0.200916 0.558285 0.556835C0.201439 0.912755 0.00066842 1.39529 0 1.89864V9.44028C0.00066842 9.94363 0.201439 10.4262 0.558285 10.7821C0.915132 11.138 1.39893 11.3383 1.90358 11.3389H9.46487C9.96952 11.3383 10.4533 11.138 10.8102 10.7821C11.167 10.4262 11.3678 9.94363 11.3684 9.44028V1.89864C11.3678 1.39529 11.167 0.912755 10.8102 0.556835C10.4533 0.200916 9.96952 0.000666684 9.46487 0Z"/>
</mask>
<path d="M9.46487 0H1.90358C1.39893 0.000666684 0.915132 0.200916 0.558285 0.556835C0.201439 0.912755 0.00066842 1.39529 0 1.89864V9.44028C0.00066842 9.94363 0.201439 10.4262 0.558285 10.7821C0.915132 11.138 1.39893 11.3383 1.90358 11.3389H9.46487C9.96952 11.3383 10.4533 11.138 10.8102 10.7821C11.167 10.4262 11.3678 9.94363 11.3684 9.44028V1.89864C11.3678 1.39529 11.167 0.912755 10.8102 0.556835C10.4533 0.200916 9.96952 0.000666684 9.46487 0Z" fill="white"/>
<path d="M9.46487 10.079V51.079H9.50508L9.54529 51.079L9.46487 10.079ZM1.90358 10.079L1.82316 51.079L1.86337 51.079H1.90358V10.079ZM1.26316 9.44028H-39.7368V9.4807L-39.7368 9.52112L1.26316 9.44028ZM1.26316 1.89864L-39.7368 1.8178L-39.7368 1.85822V1.89864H1.26316ZM1.90358 1.25988V-39.7401H1.86337L1.82316 -39.74L1.90358 1.25988ZM9.46487 1.25988L9.54529 -39.74L9.50508 -39.7401H9.46487V1.25988ZM-30.8946 9.35944C-30.8735 -1.35142 -26.5973 -11.5961 -19.0363 -19.1375L38.871 38.9206C46.672 31.1399 51.0834 20.5706 51.1052 9.52112L-30.8946 9.35944ZM-19.0363 -19.1375C-11.4789 -26.6753 -1.25737 -30.9 9.38445 -30.9209L9.54529 51.079C20.5266 51.0574 31.0735 46.6979 38.871 38.9206L-19.0363 -19.1375ZM9.46487 -30.921H1.90358V51.079H9.46487V-30.921ZM1.984 -30.9209C12.6258 -30.9 22.8473 -26.6753 30.4048 -19.1375L-27.5025 38.9206C-19.7051 46.6979 -9.15817 51.0574 1.82316 51.079L1.984 -30.9209ZM30.4048 -19.1375C37.9657 -11.5962 42.242 -1.35146 42.2631 9.35944L-39.7368 9.52112C-39.715 20.5706 -35.3035 31.1399 -27.5025 38.9206L30.4048 -19.1375ZM42.2632 9.44028V1.89864H-39.7368V9.44028H42.2632ZM42.2631 1.97948C42.242 12.6904 37.9657 22.9351 30.4048 30.4764L-27.5025 -27.5817C-35.3035 -19.801 -39.715 -9.23173 -39.7368 1.8178L42.2631 1.97948ZM30.4048 30.4764C22.8474 38.0141 12.6259 42.2389 1.984 42.2598L1.82316 -39.74C-9.15824 -39.7185 -19.7051 -35.3589 -27.5025 -27.5817L30.4048 30.4764ZM1.90358 42.2599H9.46487V-39.7401H1.90358V42.2599ZM9.38445 42.2598C-1.25744 42.2389 -11.4789 38.0141 -19.0363 30.4764L38.871 -27.5817C31.0735 -35.3589 20.5267 -39.7185 9.54529 -39.74L9.38445 42.2598ZM-19.0363 30.4764C-26.5973 22.9351 -30.8735 12.6904 -30.8946 1.97948L51.1052 1.8178C51.0834 -9.23169 46.672 -19.801 38.871 -27.5817L-19.0363 30.4764ZM9.46487 0L9.57319 -81.9999L9.51903 -82H9.46487V0ZM1.90358 0V-82H1.84942L1.79526 -81.9999L1.90358 0ZM0 1.89864L-81.9999 1.78975L-82 1.84419V1.89864H0ZM0 9.44028H-82V9.49473L-81.9999 9.54917L0 9.44028ZM1.90358 11.3389L1.79526 93.3388L1.84942 93.3389H1.90358V11.3389ZM9.46487 11.3389V93.3389H9.51903L9.57319 93.3388L9.46487 11.3389ZM11.3684 9.44028L93.3684 9.54917L93.3684 9.49473V9.44028H11.3684ZM11.3684 1.89864H93.3684V1.84419L93.3684 1.78975L11.3684 1.89864ZM9.46487 -82H1.90358V82H9.46487V-82ZM1.79526 -81.9999C-20.351 -81.9707 -41.6245 -73.1849 -57.349 -57.5013L58.4656 58.6149C43.4548 73.5868 23.1488 81.972 2.01191 81.9999L1.79526 -81.9999ZM-57.349 -57.5013C-73.0807 -41.8105 -81.9703 -20.4925 -81.9999 1.78975L81.9999 2.00753C81.9717 23.2831 73.4835 43.636 58.4656 58.6149L-57.349 -57.5013ZM-82 1.89864V9.44028H82V1.89864H-82ZM-81.9999 9.54917C-81.9703 31.8314 -73.0807 53.1494 -57.349 68.8402L58.4656 -47.276C73.4835 -32.2971 81.9717 -11.9441 81.9999 9.33139L-81.9999 9.54917ZM-57.349 68.8402C-41.6245 84.5239 -20.3509 93.3096 1.79526 93.3388L2.01191 -70.661C23.1488 -70.6331 43.4548 -62.2479 58.4656 -47.276L-57.349 68.8402ZM1.90358 93.3389H9.46487V-70.6611H1.90358V93.3389ZM9.57319 93.3388C31.7194 93.3096 52.9929 84.5239 68.7175 68.8402L-47.0971 -47.276C-32.0863 -62.2479 -11.7803 -70.6331 9.35654 -70.661L9.57319 93.3388ZM68.7175 68.8402C84.4491 53.1494 93.3388 31.8314 93.3684 9.54917L-70.6315 9.33139C-70.6032 -11.9442 -62.1151 -32.2971 -47.0971 -47.276L68.7175 68.8402ZM93.3684 9.44028V1.89864H-70.6316V9.44028H93.3684ZM93.3684 1.78975C93.3388 -20.4925 84.4491 -41.8105 68.7175 -57.5013L-47.0971 58.6149C-62.1151 43.636 -70.6032 23.2831 -70.6315 2.00753L93.3684 1.78975ZM68.7175 -57.5013C52.993 -73.1849 31.7194 -81.9707 9.57319 -81.9999L9.35654 81.9999C-11.7804 81.972 -32.0863 73.5868 -47.0971 58.6149L68.7175 -57.5013Z" fill="white" mask="url(#path-1-inside-1_90_1861)"/>
<mask id="path-3-inside-2_90_1861" fill="white">
<path d="M22.0962 0H14.5349C14.0303 0.000666684 13.5465 0.200916 13.1896 0.556835C12.8328 0.912755 12.632 1.39529 12.6313 1.89864V9.44028C12.632 9.94363 12.8328 10.4262 13.1896 10.7821C13.5465 11.138 14.0303 11.3383 14.5349 11.3389H22.0962C22.6009 11.3383 23.0847 11.138 23.4415 10.7821C23.7984 10.4262 23.9991 9.94363 23.9998 9.44028V1.89864C23.9991 1.39529 23.7984 0.912755 23.4415 0.556835C23.0847 0.200916 22.6009 0.000666684 22.0962 0Z"/>
</mask>
<path d="M22.0962 0H14.5349C14.0303 0.000666684 13.5465 0.200916 13.1896 0.556835C12.8328 0.912755 12.632 1.39529 12.6313 1.89864V9.44028C12.632 9.94363 12.8328 10.4262 13.1896 10.7821C13.5465 11.138 14.0303 11.3383 14.5349 11.3389H22.0962C22.6009 11.3383 23.0847 11.138 23.4415 10.7821C23.7984 10.4262 23.9991 9.94363 23.9998 9.44028V1.89864C23.9991 1.39529 23.7984 0.912755 23.4415 0.556835C23.0847 0.200916 22.6009 0.000666684 22.0962 0Z" fill="white"/>
<path d="M22.7366 9.44028L63.7366 9.52112L63.7366 9.4807V9.44028H22.7366ZM22.0962 10.079V51.079H22.1364L22.1766 51.079L22.0962 10.079ZM14.5349 10.079L14.4545 51.079L14.4947 51.079H14.5349V10.079ZM13.8945 9.44028H-27.1055V9.4807L-27.1054 9.52112L13.8945 9.44028ZM13.8945 1.89864L-27.1054 1.8178L-27.1055 1.85822V1.89864H13.8945ZM22.7366 1.89864H63.7366V1.85822L63.7366 1.8178L22.7366 1.89864ZM-18.2633 9.35944C-18.2422 -1.35142 -13.9659 -11.5961 -6.40496 -19.1375L51.5023 38.9206C59.3034 31.1399 63.7148 20.5706 63.7366 9.52112L-18.2633 9.35944ZM-6.40496 -19.1375C1.15248 -26.6753 11.374 -30.9 22.0158 -30.9209L22.1766 51.079C33.1579 51.0574 43.7048 46.6979 51.5023 38.9206L-6.40496 -19.1375ZM22.0962 -30.921H14.5349V51.079H22.0962V-30.921ZM14.6154 -30.9209C25.2572 -30.9 35.4787 -26.6753 43.0361 -19.1375L-14.8712 38.9206C-7.0737 46.6979 3.4732 51.0574 14.4545 51.079L14.6154 -30.9209ZM43.0361 -19.1375C50.5971 -11.5961 54.8733 -1.35142 54.8944 9.35944L-27.1054 9.52112C-27.0836 20.5706 -22.6722 31.1399 -14.8712 38.9206L43.0361 -19.1375ZM54.8945 9.44028V1.89864H-27.1055V9.44028H54.8945ZM54.8944 1.97948C54.8733 12.6904 50.5971 22.9351 43.0361 30.4764L-14.8712 -27.5817C-22.6722 -19.801 -27.0836 -9.23169 -27.1054 1.8178L54.8944 1.97948ZM43.0361 30.4764C35.4787 38.0141 25.2572 42.2389 14.6154 42.2598L14.4545 -39.74C3.47312 -39.7185 -7.07376 -35.3589 -14.8712 -27.5817L43.0361 30.4764ZM-6.40496 30.4764C-13.9659 22.9351 -18.2422 12.6904 -18.2633 1.97948L63.7366 1.8178C63.7148 -9.23169 59.3034 -19.801 51.5023 -27.5817L-6.40496 30.4764ZM-18.2634 1.89864V9.44028H63.7366V1.89864H-18.2634ZM22.0962 0L22.2045 -81.9999L22.1504 -82H22.0962V0ZM14.5349 0V-82H14.4808L14.4266 -81.9999L14.5349 0ZM12.6313 1.89864L-69.3686 1.78975L-69.3687 1.84419V1.89864H12.6313ZM12.6313 9.44028H-69.3687V9.49473L-69.3686 9.54917L12.6313 9.44028ZM14.5349 11.3389L14.4266 93.3388L14.4808 93.3389H14.5349V11.3389ZM22.0962 11.3389V93.3389H22.1504L22.2045 93.3388L22.0962 11.3389ZM23.9998 9.44028L106 9.54917L106 9.49473V9.44028H23.9998ZM23.9998 1.89864H106V1.84419L106 1.78975L23.9998 1.89864ZM22.0962 -82H14.5349V82H22.0962V-82ZM14.4266 -81.9999C-7.71962 -81.9707 -28.9932 -73.1849 -44.7177 -57.5013L71.0969 58.6149C56.0861 73.5868 35.7802 81.972 14.6433 81.9999L14.4266 -81.9999ZM-44.7177 -57.5013C-60.4493 -41.8105 -69.339 -20.4925 -69.3686 1.78975L94.6313 2.00753C94.603 23.2831 86.1149 43.636 71.0969 58.6149L-44.7177 -57.5013ZM-69.3687 1.89864V9.44028H94.6313V1.89864H-69.3687ZM-69.3686 9.54917C-69.339 31.8314 -60.4493 53.1494 -44.7177 68.8402L71.0969 -47.276C86.1149 -32.2971 94.603 -11.9441 94.6313 9.33139L-69.3686 9.54917ZM-44.7177 68.8402C-28.9931 84.5239 -7.71958 93.3096 14.4266 93.3388L14.6433 -70.661C35.7801 -70.6331 56.0861 -62.2479 71.0969 -47.276L-44.7177 68.8402ZM14.5349 93.3389H22.0962V-70.6611H14.5349V93.3389ZM22.2045 93.3388C44.3507 93.3096 65.6243 84.5239 81.3488 68.8402L-34.4658 -47.276C-19.455 -62.2479 0.851016 -70.6331 21.9879 -70.661L22.2045 93.3388ZM81.3488 68.8402C97.0804 53.1494 105.97 31.8314 106 9.54917L-58.0001 9.33139C-57.9719 -11.9442 -49.4837 -32.2971 -34.4658 -47.276L81.3488 68.8402ZM106 9.44028V1.89864H-58.0002V9.44028H106ZM106 1.78975C105.97 -20.4925 97.0804 -41.8105 81.3488 -57.5013L-34.4658 58.6149C-49.4837 43.636 -57.9719 23.2831 -58.0001 2.00753L106 1.78975ZM81.3488 -57.5013C65.6243 -73.1849 44.3508 -81.9707 22.2045 -81.9999L21.9879 81.9999C0.850976 81.972 -19.455 73.5868 -34.4658 58.6149L81.3488 -57.5013Z" fill="white" mask="url(#path-3-inside-2_90_1861)"/>
<mask id="path-5-inside-3_90_1861" fill="white">
<path d="M9.46487 12.5989H1.90358C1.39893 12.5995 0.915132 12.7998 0.558285 13.1557C0.201439 13.5116 0.00066842 13.9942 0 14.4975V22.0392C0.00066842 22.5425 0.201439 23.025 0.558285 23.381C0.915132 23.7369 1.39893 23.9371 1.90358 23.9378H9.46487C9.96952 23.9371 10.4533 23.7369 10.8102 23.381C11.167 23.025 11.3678 22.5425 11.3684 22.0392V14.4975C11.3678 13.9942 11.167 13.5116 10.8102 13.1557C10.4533 12.7998 9.96952 12.5995 9.46487 12.5989Z"/>
</mask>
<path d="M9.46487 12.5989H1.90358C1.39893 12.5995 0.915132 12.7998 0.558285 13.1557C0.201439 13.5116 0.00066842 13.9942 0 14.4975V22.0392C0.00066842 22.5425 0.201439 23.025 0.558285 23.381C0.915132 23.7369 1.39893 23.9371 1.90358 23.9378H9.46487C9.96952 23.9371 10.4533 23.7369 10.8102 23.381C11.167 23.025 11.3678 22.5425 11.3684 22.0392V14.4975C11.3678 13.9942 11.167 13.5116 10.8102 13.1557C10.4533 12.7998 9.96952 12.5995 9.46487 12.5989Z" fill="white"/>
<path d="M10.1053 22.0392L51.1052 22.12L51.1053 22.0796V22.0392H10.1053ZM9.46487 22.6779V63.6779H9.50508L9.54529 63.6778L9.46487 22.6779ZM1.90358 22.6779L1.82316 63.6778L1.86337 63.6779H1.90358V22.6779ZM1.26316 22.0392H-39.7368V22.0796L-39.7368 22.12L1.26316 22.0392ZM1.26316 14.4975L-39.7368 14.4167L-39.7368 14.4571V14.4975H1.26316ZM10.1053 14.4975H51.1053V14.4571L51.1052 14.4167L10.1053 14.4975ZM-30.8946 21.9583C-30.8735 11.2475 -26.5973 1.00274 -19.0363 -6.53859L38.871 51.5195C46.672 43.7387 51.0834 33.1695 51.1052 22.12L-30.8946 21.9583ZM-19.0363 -6.53859C-11.4789 -14.0764 -1.25737 -18.3011 9.38445 -18.322L9.54529 63.6778C20.5266 63.6563 31.0735 59.2968 38.871 51.5195L-19.0363 -6.53859ZM9.46487 -18.3221H1.90358V63.6779H9.46487V-18.3221ZM1.984 -18.322C12.6258 -18.3011 22.8473 -14.0764 30.4048 -6.53859L-27.5025 51.5195C-19.7051 59.2967 -9.15817 63.6563 1.82316 63.6778L1.984 -18.322ZM30.4048 -6.53859C37.9657 1.00271 42.242 11.2474 42.2631 21.9583L-39.7368 22.12C-39.715 33.1695 -35.3035 43.7388 -27.5025 51.5195L30.4048 -6.53859ZM42.2632 22.0392V14.4975H-39.7368V22.0392H42.2632ZM42.2631 14.5784C42.242 25.2893 37.9657 35.534 30.4048 43.0753L-27.5025 -14.9828C-35.3036 -7.2021 -39.715 3.36716 -39.7368 14.4167L42.2631 14.5784ZM30.4048 43.0753C22.8474 50.613 12.6259 54.8378 1.984 54.8587L1.82316 -27.1412C-9.1582 -27.1196 -19.7051 -22.7601 -27.5025 -14.9828L30.4048 43.0753ZM-19.0363 43.0753C-26.5973 35.5339 -30.8735 25.2892 -30.8946 14.5784L51.1052 14.4167C51.0834 3.36721 46.672 -7.20207 38.871 -14.9828L-19.0363 43.0753ZM-30.8947 14.4975V22.0392H51.1053V14.4975H-30.8947ZM9.46487 12.5989L9.57319 -69.4011L9.51903 -69.4011H9.46487V12.5989ZM1.90358 12.5989V-69.4011H1.84942L1.79526 -69.4011L1.90358 12.5989ZM0 14.4975L-81.9999 14.3886L-82 14.4431V14.4975H0ZM0 22.0392H-82V22.0936L-81.9999 22.1481L0 22.0392ZM1.90358 23.9378L1.79526 105.938L1.84942 105.938H1.90358V23.9378ZM9.46487 23.9378V105.938H9.51903L9.57319 105.938L9.46487 23.9378ZM11.3684 22.0392L93.3684 22.1481L93.3684 22.0936V22.0392H11.3684ZM11.3684 14.4975H93.3684V14.4431L93.3684 14.3886L11.3684 14.4975ZM9.46487 -69.4011H1.90358V94.5989H9.46487V-69.4011ZM1.79526 -69.4011C-20.351 -69.3718 -41.6245 -60.5861 -57.349 -44.9024L58.4656 71.2138C43.4548 86.1856 23.1488 94.5709 2.01191 94.5988L1.79526 -69.4011ZM-57.349 -44.9024C-73.0807 -29.2116 -81.9703 -7.89359 -81.9999 14.3886L81.9999 14.6064C81.9717 35.8819 73.4835 56.2349 58.4656 71.2138L-57.349 -44.9024ZM-82 14.4975V22.0392H82V14.4975H-82ZM-81.9999 22.1481C-81.9703 44.4303 -73.0807 65.7483 -57.349 81.4391L58.4656 -34.6771C73.4835 -19.6982 81.9717 0.654734 81.9999 21.9303L-81.9999 22.1481ZM-57.349 81.4391C-41.6245 97.1228 -20.3509 105.908 1.79526 105.938L2.01191 -58.0621C23.1488 -58.0342 43.4548 -49.649 58.4656 -34.6771L-57.349 81.4391ZM1.90358 105.938H9.46487V-58.0622H1.90358V105.938ZM9.57319 105.938C31.7194 105.908 52.9929 97.1228 68.7175 81.4391L-47.0971 -34.6771C-32.0863 -49.649 -11.7803 -58.0342 9.35654 -58.0621L9.57319 105.938ZM68.7175 81.4391C84.4491 65.7483 93.3388 44.4303 93.3684 22.1481L-70.6315 21.9303C-70.6032 0.654714 -62.1151 -19.6982 -47.0971 -34.6771L68.7175 81.4391ZM93.3684 22.0392V14.4975H-70.6316V22.0392H93.3684ZM93.3684 14.3886C93.3388 -7.89361 84.4491 -29.2116 68.7175 -44.9024L-47.0971 71.2138C-62.1151 56.2349 -70.6032 35.882 -70.6315 14.6064L93.3684 14.3886ZM68.7175 -44.9024C52.993 -60.5861 31.7194 -69.3718 9.57319 -69.4011L9.35654 94.5988C-11.7804 94.5709 -32.0863 86.1856 -47.0971 71.2138L68.7175 -44.9024Z" fill="white" mask="url(#path-5-inside-3_90_1861)"/>
<mask id="path-7-inside-4_90_1861" fill="white">
<path d="M22.0962 12.5989H14.5349C14.0303 12.5995 13.5465 12.7998 13.1896 13.1557C12.8328 13.5116 12.632 13.9942 12.6313 14.4975V22.0392C12.632 22.5425 12.8328 23.025 13.1896 23.381C13.5465 23.7369 14.0303 23.9371 14.5349 23.9378H22.0962C22.6009 23.9371 23.0847 23.7369 23.4415 23.381C23.7984 23.025 23.9991 22.5425 23.9998 22.0392V14.4975C23.9991 13.9942 23.7984 13.5116 23.4415 13.1557C23.0847 12.7998 22.6009 12.5995 22.0962 12.5989Z"/>
</mask>
<path d="M22.0962 12.5989H14.5349C14.0303 12.5995 13.5465 12.7998 13.1896 13.1557C12.8328 13.5116 12.632 13.9942 12.6313 14.4975V22.0392C12.632 22.5425 12.8328 23.025 13.1896 23.381C13.5465 23.7369 14.0303 23.9371 14.5349 23.9378H22.0962C22.6009 23.9371 23.0847 23.7369 23.4415 23.381C23.7984 23.025 23.9991 22.5425 23.9998 22.0392V14.4975C23.9991 13.9942 23.7984 13.5116 23.4415 13.1557C23.0847 12.7998 22.6009 12.5995 22.0962 12.5989Z" fill="white"/>
<path d="M22.7366 22.0392L63.7366 22.12L63.7366 22.0796V22.0392H22.7366ZM22.0962 22.6779V63.6779H22.1364L22.1766 63.6778L22.0962 22.6779ZM14.5349 22.6779L14.4545 63.6778L14.4947 63.6779H14.5349V22.6779ZM13.8945 22.0392H-27.1055V22.0796L-27.1054 22.12L13.8945 22.0392ZM13.8945 14.4975L-27.1054 14.4167L-27.1055 14.4571V14.4975H13.8945ZM22.7366 14.4975H63.7366V14.4571L63.7366 14.4167L22.7366 14.4975ZM-18.2633 21.9583C-18.2422 11.2475 -13.9659 1.00274 -6.40496 -6.53859L51.5023 51.5195C59.3034 43.7387 63.7148 33.1695 63.7366 22.12L-18.2633 21.9583ZM-6.40496 -6.53859C1.15248 -14.0764 11.374 -18.3011 22.0158 -18.322L22.1766 63.6778C33.1579 63.6563 43.7048 59.2968 51.5023 51.5195L-6.40496 -6.53859ZM22.0962 -18.3221H14.5349V63.6779H22.0962V-18.3221ZM14.6154 -18.322C25.2572 -18.3011 35.4787 -14.0764 43.0361 -6.53859L-14.8712 51.5195C-7.0737 59.2968 3.4732 63.6563 14.4545 63.6778L14.6154 -18.322ZM43.0361 -6.53859C50.5971 1.00274 54.8733 11.2475 54.8944 21.9583L-27.1054 22.12C-27.0836 33.1695 -22.6722 43.7387 -14.8712 51.5195L43.0361 -6.53859ZM54.8945 22.0392V14.4975H-27.1055V22.0392H54.8945ZM54.8944 14.5784C54.8733 25.2892 50.5971 35.5339 43.0361 43.0753L-14.8712 -14.9828C-22.6722 -7.20207 -27.0836 3.36721 -27.1054 14.4167L54.8944 14.5784ZM43.0361 43.0753C35.4787 50.6131 25.2572 54.8378 14.6154 54.8587L14.4545 -27.1412C3.47317 -27.1196 -7.07373 -22.7601 -14.8712 -14.9828L43.0361 43.0753ZM-6.40496 43.0753C-13.9659 35.5339 -18.2422 25.2892 -18.2633 14.5784L63.7366 14.4167C63.7148 3.36721 59.3034 -7.20207 51.5023 -14.9828L-6.40496 43.0753ZM-18.2634 14.4975V22.0392H63.7366V14.4975H-18.2634ZM22.0962 12.5989L22.2045 -69.4011L22.1504 -69.4011H22.0962V12.5989ZM14.5349 12.5989V-69.4011H14.4808L14.4266 -69.4011L14.5349 12.5989ZM12.6313 14.4975L-69.3686 14.3886L-69.3687 14.4431V14.4975H12.6313ZM12.6313 22.0392H-69.3687V22.0936L-69.3686 22.1481L12.6313 22.0392ZM14.5349 23.9378L14.4266 105.938L14.4808 105.938H14.5349V23.9378ZM22.0962 23.9378V105.938H22.1504L22.2045 105.938L22.0962 23.9378ZM23.9998 22.0392L106 22.1481L106 22.0936V22.0392H23.9998ZM23.9998 14.4975H106V14.4431L106 14.3886L23.9998 14.4975ZM22.0962 -69.4011H14.5349V94.5989H22.0962V-69.4011ZM14.4266 -69.4011C-7.71962 -69.3718 -28.9932 -60.5861 -44.7177 -44.9024L71.0969 71.2138C56.0861 86.1856 35.7802 94.5709 14.6433 94.5988L14.4266 -69.4011ZM-44.7177 -44.9024C-60.4493 -29.2116 -69.339 -7.89359 -69.3686 14.3886L94.6313 14.6064C94.603 35.8819 86.1149 56.2349 71.0969 71.2138L-44.7177 -44.9024ZM-69.3687 14.4975V22.0392H94.6313V14.4975H-69.3687ZM-69.3686 22.1481C-69.339 44.4303 -60.4493 65.7483 -44.7177 81.4391L71.0969 -34.6771C86.1149 -19.6982 94.603 0.654734 94.6313 21.9303L-69.3686 22.1481ZM-44.7177 81.4391C-28.9931 97.1228 -7.71958 105.908 14.4266 105.938L14.6433 -58.0621C35.7801 -58.0342 56.0861 -49.649 71.0969 -34.6771L-44.7177 81.4391ZM14.5349 105.938H22.0962V-58.0622H14.5349V105.938ZM22.2045 105.938C44.3507 105.908 65.6243 97.1228 81.3488 81.4391L-34.4658 -34.6771C-19.455 -49.649 0.851016 -58.0342 21.9879 -58.0621L22.2045 105.938ZM81.3488 81.4391C97.0804 65.7483 105.97 44.4303 106 22.1481L-58.0001 21.9303C-57.9719 0.654714 -49.4837 -19.6982 -34.4658 -34.6771L81.3488 81.4391ZM106 22.0392V14.4975H-58.0002V22.0392H106ZM106 14.3886C105.97 -7.89361 97.0804 -29.2116 81.3488 -44.9024L-34.4658 71.2138C-49.4837 56.2349 -57.9719 35.882 -58.0001 14.6064L106 14.3886ZM81.3488 -44.9024C65.6243 -60.5861 44.3508 -69.3718 22.2045 -69.4011L21.9879 94.5988C0.850976 94.5709 -19.455 86.1856 -34.4658 71.2138L81.3488 -44.9024Z" fill="white" mask="url(#path-7-inside-4_90_1861)"/>
</svg>
