<svg width="24" height="24" viewBox="0 0 24 24" fill="none" xmlns="http://www.w3.org/2000/svg">
<path d="M22.2001 0H1.79994C0.807729 0 0 0.807729 0 1.79994V22.1989C0 23.1911 0.807729 23.9989 1.79994 23.9989H22.1989C23.1911 23.9989 23.9989 23.1911 23.9989 22.1989L24 1.79994C24 0.807729 23.1923 0 22.2001 0Z" fill="white"/>
<path d="M19.075 5.40441H16.9044C16.6637 4.48733 15.8593 3.80664 14.8974 3.80664C13.7465 3.80664 12.8101 4.77519 12.8101 5.96535C12.8426 8.47915 16.2624 8.92457 16.9054 6.5242H19.076C19.7871 6.51264 19.7891 5.41595 19.076 5.40333L19.075 5.40441ZM14.8975 7.00428C13.574 6.96856 13.574 4.96214 14.8975 4.92643C16.221 4.96214 16.221 6.96857 14.8975 7.00428Z" fill="#161825"/>
<path d="M4.34994 6.52614H11.1868C11.8968 6.51458 11.9008 5.41789 11.1868 5.40527H4.34994C3.63994 5.41683 3.63588 6.51353 4.34994 6.52614Z" fill="#161825"/>
<path d="M12.1395 12.7168H19.0738C19.7838 12.7053 19.7879 11.6086 19.0738 11.5959H12.1395C11.4295 11.6075 11.4254 12.7042 12.1395 12.7168Z" fill="#161825"/>
<path d="M8.42818 9.99805C7.46529 9.99805 6.66082 10.6787 6.42009 11.5969H4.34801C4.04839 11.5969 3.80664 11.8479 3.80664 12.1568C3.80664 12.4666 4.0494 12.7167 4.34801 12.7167H6.42009C7.06306 15.1159 10.484 14.6684 10.5155 12.1568C10.5155 10.9666 9.57897 9.99805 8.42818 9.99805ZM8.42818 13.1958C7.10367 13.1601 7.10471 11.1537 8.42818 11.1179C9.75165 11.1537 9.75165 13.1601 8.42818 13.1958Z" fill="#161825"/>
<path d="M19.0748 17.7882H15.1398C14.4989 15.3879 11.0749 15.8343 11.0444 18.3471C11.0769 20.8587 14.495 21.3063 15.1398 18.908H19.0758C19.7858 18.8964 19.7899 17.7997 19.0758 17.7871L19.0748 17.7882ZM13.1327 19.387C11.8082 19.3513 11.8082 17.3449 13.1327 17.3092C14.4562 17.3449 14.4551 19.3513 13.1327 19.387Z" fill="#161825"/>
<path d="M9.42041 17.7876H4.34994C3.63893 17.7992 3.6369 18.8958 4.34994 18.9085H9.42041C10.1314 18.8969 10.1334 17.8002 9.42041 17.7876Z" fill="#161825"/>
</svg>
