<svg width="24" height="24" viewBox="0 0 24 24" fill="none" xmlns="http://www.w3.org/2000/svg">
<path d="M20.8 0H3.2C1.43601 0 0 1.43601 0 3.2V20.8C0 22.564 1.43601 24 3.2 24H20.8C22.564 24 24 22.564 24 20.8V3.2C24 1.43601 22.564 0 20.8 0Z" fill="white"/>
<path d="M10.7268 4.33511H13.2718C13.7138 4.33511 14.0718 3.97712 14.0718 3.53511C14.0718 3.0931 13.7138 2.73511 13.2718 2.73511H10.7268C10.2847 2.73511 9.92676 3.0931 9.92676 3.53511C9.92676 3.97712 10.2847 4.33511 10.7268 4.33511Z" fill="#202133"/>
<path d="M9.27463 19.5759H3.79854C3.35653 19.5759 2.99854 19.9339 2.99854 20.3759C2.99854 20.8179 3.35653 21.1759 3.79854 21.1759H9.27463C9.71664 21.1759 10.0746 20.8179 10.0746 20.3759C10.0746 19.9339 9.71664 19.5759 9.27463 19.5759Z" fill="#202133"/>
<path d="M9.27463 17.2209H3.79854C3.35653 17.2209 2.99854 17.5789 2.99854 18.0209C2.99854 18.463 3.35653 18.8209 3.79854 18.8209H9.27463C9.71664 18.8209 10.0746 18.463 10.0746 18.0209C10.0746 17.5789 9.71664 17.2209 9.27463 17.2209Z" fill="#202133"/>
</svg>
