<svg width="24" height="24" viewBox="0 0 24 24" fill="none" xmlns="http://www.w3.org/2000/svg">
<mask id="mask0_90_1898" style="mask-type:alpha" maskUnits="userSpaceOnUse" x="0" y="0" width="24" height="24">
<rect width="24" height="24" fill="#D9D9D9"/>
</mask>
<g mask="url(#mask0_90_1898)">
<path d="M17.2456 1.63891C16.4559 1.24639 15.6275 0.937094 14.7737 0.716033C13.8951 0.5101 13.015 0.397468 12.1334 0.378138C11.945 0.373606 11.7601 0.428297 11.6045 0.5345C11.4489 0.640702 11.3306 0.79306 11.2662 0.970091L10.6282 2.70341C10.5377 2.94778 10.3913 3.16758 10.2007 3.34523C10.0101 3.52288 9.78054 3.65344 9.53042 3.72646C9.28029 3.79948 9.01654 3.81294 8.76028 3.76576C8.50402 3.71857 8.26236 3.61206 8.05464 3.45473L6.59873 2.33317C6.45095 2.21931 6.27144 2.15419 6.08503 2.14684C5.89863 2.13949 5.71454 2.19026 5.55826 2.29213C4.06543 3.26473 2.81235 4.56292 1.89312 6.08919C1.79575 6.24968 1.75101 6.43661 1.76517 6.6238C1.77933 6.81099 1.85169 6.98906 1.97211 7.13307L3.1586 8.55887C3.32573 8.75917 3.44338 8.996 3.50204 9.25019C3.5607 9.50439 3.55871 9.76882 3.49625 10.0221C3.43378 10.2754 3.31259 10.5104 3.14247 10.7082C2.97235 10.906 2.75807 11.0609 2.51697 11.1606L0.802899 11.874C0.629533 11.9455 0.482838 12.0694 0.38332 12.2284C0.283802 12.3873 0.236435 12.5734 0.24784 12.7606C0.351766 14.5402 0.856436 16.2734 1.72416 17.8306C1.815 17.9936 1.95428 18.1243 2.12269 18.2047C2.2911 18.285 2.48033 18.311 2.66417 18.279L4.48268 17.963C4.73858 17.9195 5.0011 17.9366 5.24922 18.0129C5.49733 18.0891 5.72415 18.2224 5.91152 18.402C6.29077 18.7675 6.47484 19.2913 6.40724 19.8146L6.16521 21.6455C6.1404 21.8297 6.17324 22.0171 6.25922 22.1819C6.3452 22.3466 6.4801 22.4807 6.64537 22.5657C8.236 23.3842 9.99636 23.8184 11.7852 23.8333C11.971 23.8349 12.1528 23.7789 12.3055 23.673C12.4582 23.5671 12.5744 23.4165 12.6381 23.2419L13.2759 21.5055C13.3647 21.2605 13.5101 21.04 13.7002 20.8619C13.8903 20.6837 14.1198 20.5529 14.3699 20.4801C14.6201 20.4074 14.8839 20.3947 15.1399 20.4431C15.3959 20.4915 15.6369 20.5996 15.8432 20.7587L17.3053 21.8838C17.4532 21.9975 17.6328 22.0625 17.8193 22.0697C18.0058 22.0769 18.1898 22.0259 18.346 21.9239C19.8374 20.9499 21.0896 19.6517 22.0093 18.1263C22.1067 17.9658 22.1514 17.7789 22.1372 17.5917C22.1231 17.4045 22.0507 17.2265 21.9303 17.0825L20.7459 15.6562C20.5787 15.4559 20.461 15.2191 20.4022 14.965C20.3435 14.7108 20.3454 14.4464 20.4078 14.1931C20.4701 13.9397 20.5912 13.7047 20.7613 13.5068C20.9313 13.309 21.1456 13.154 21.3866 13.0542L23.0986 12.3412C23.2718 12.2696 23.4183 12.1456 23.5176 11.9866C23.617 11.8276 23.6642 11.6416 23.6527 11.4545C23.5488 9.67599 23.0433 7.94413 22.1742 6.38893C22.0832 6.22608 21.9439 6.09554 21.7754 6.01538C21.607 5.93522 21.4178 5.9094 21.234 5.94149L19.4235 6.25751C19.1979 6.29688 18.9666 6.28922 18.7441 6.23501C18.3464 6.13637 17.9992 5.89436 17.769 5.55539C17.5388 5.21642 17.4419 4.80439 17.4968 4.39835L17.7374 2.56502C17.7626 2.37876 17.7287 2.1893 17.6407 2.02324C17.5527 1.85719 17.4139 1.72264 17.2456 1.63891ZM11.0146 15.9054C10.0073 15.657 9.13994 15.0186 8.60332 14.1306C8.0667 13.2427 7.9048 12.1779 8.15322 11.1706C8.40164 10.1633 9.04005 9.29591 9.92799 8.75929C10.8159 8.22267 11.8807 8.06076 12.888 8.30919C13.8953 8.55761 14.7627 9.19602 15.2993 10.084C15.8359 10.9719 15.9978 12.0367 15.7494 13.044C15.501 14.0513 14.8626 14.9187 13.9746 15.4553C13.0867 15.9919 12.022 16.1538 11.0146 15.9054Z" fill="white"/>
</g>
</svg>
